<svg width="65" height="66" viewBox="0 0 65 66" fill="none" xmlns="http://www.w3.org/2000/svg">
<circle cx="32.5" cy="32.7342" r="32.5" fill="#0156FF"/>
<g clip-path="url(#clip0_1143_8008)">
<path d="M35.82 44.8824L33 47.7024L30.18 44.8824C24.6375 43.6024 20.5 38.6324 20.5 32.7024C20.5 25.8024 26.1 20.2024 33 20.2024C39.9 20.2024 45.5 25.8024 45.5 32.7024C45.5 38.6324 41.3625 43.6024 35.82 44.8824ZM25.5287 36.9724C27.3637 39.7099 30.1187 41.4524 33.2 41.4524C36.28 41.4524 39.0362 39.7112 40.87 36.9724C38.7897 35.0282 36.0474 33.9484 33.2 33.9524C30.3521 33.9481 27.6094 35.0279 25.5287 36.9724ZM33 31.4524C33.9946 31.4524 34.9484 31.0574 35.6517 30.3541C36.3549 29.6508 36.75 28.697 36.75 27.7024C36.75 26.7079 36.3549 25.754 35.6517 25.0508C34.9484 24.3475 33.9946 23.9524 33 23.9524C32.0054 23.9524 31.0516 24.3475 30.3483 25.0508C29.6451 25.754 29.25 26.7079 29.25 27.7024C29.25 28.697 29.6451 29.6508 30.3483 30.3541C31.0516 31.0574 32.0054 31.4524 33 31.4524Z" fill="white"/>
</g>
<defs>
<clipPath id="clip0_1143_8008">
<rect width="30" height="30" fill="white" transform="translate(18 17.7024)"/>
</clipPath>
</defs>
</svg>
